<svg xmlns="http://www.w3.org/2000/svg" width="158.873" height="23.872" viewBox="0 0 158.873 23.872">
  <g id="Group_221" data-name="Group 221" transform="translate(-429 126)">
    <path id="Path_178" data-name="Path 178" d="M1528.231,777.06h-12.455a5.136,5.136,0,0,0-5.135,5.135v7.435a5.136,5.136,0,0,0,5.135,5.135h12.455a5.136,5.136,0,0,0,5.135-5.135V782.2A5.136,5.136,0,0,0,1528.231,777.06Zm1.2,12.1a1.64,1.64,0,0,1-1.648,1.638h-11.555a1.64,1.64,0,0,1-1.648-1.638v-6.515a1.648,1.648,0,0,1,1.648-1.648h11.555a1.648,1.648,0,0,1,1.648,1.648Z" transform="translate(-962.866 -896.894)" fill="#95c53b"/>
    <path id="Path_179" data-name="Path 179" d="M1408.589,774.735a2,2,0,1,1,2-2A2.005,2.005,0,0,1,1408.589,774.735Z" transform="translate(-958.506 -896.628)" fill="#474747"/>
    <path id="Rectangle_84" data-name="Rectangle 84" d="M.7,0H16.607a.7.7,0,0,1,.7.7V3.24a.7.7,0,0,1-.7.7H.7a.7.7,0,0,1-.7-.7V.7A.7.7,0,0,1,.7,0Z" transform="translate(452.086 -119.48) rotate(90)" fill="#474747"/>
    <path id="Path_180" data-name="Path 180" d="M1548.667,794.715a.828.828,0,0,1-.828-.828v-9.5a3.424,3.424,0,0,0-3.42-3.42,3.606,3.606,0,0,0-.714.072,3.47,3.47,0,0,0-2.707,3.437v9.412a.829.829,0,0,1-.828.828h-2.35a.828.828,0,0,1-.827-.828v-9.5a7.425,7.425,0,1,1,14.85,0v9.5a.828.828,0,0,1-.827.828Z" transform="translate(-963.97 -896.89)" fill="#474747"/>
    <path id="Path_181" data-name="Path 181" d="M1476.932,794.623a.71.71,0,0,1-.71-.709v-9.429a3.572,3.572,0,0,0-2.779-3.536,3.771,3.771,0,0,0-.738-.075,3.52,3.52,0,0,0-3.515,3.515v9.525a.71.71,0,0,1-.71.709h-2.393a.71.71,0,0,1-.709-.709v-9.429a3.573,3.573,0,0,0-2.78-3.536,3.768,3.768,0,0,0-.738-.075,3.52,3.52,0,0,0-3.515,3.515v9.525a.71.71,0,0,1-.71.709h-2.394a.71.71,0,0,1-.709-.709V784.39a7.3,7.3,0,0,1,12.547-5.119l.205.208.205-.208a7.314,7.314,0,0,1,12.547,5.119v9.525a.71.71,0,0,1-.71.709Z" transform="translate(-960.515 -896.894)" fill="#474747"/>
    <path id="Rectangle_85" data-name="Rectangle 85" d="M.7,0H23.126a.7.7,0,0,1,.7.7V3.24a.7.7,0,0,1-.7.7H.7a.7.7,0,0,1-.7-.7V.7A.7.7,0,0,1,.7,0Z" transform="translate(445.558 -126) rotate(90)" fill="#474747"/>
    <path id="Rectangle_86" data-name="Rectangle 86" d="M.7,0H23.126a.7.7,0,0,1,.7.7V3.24a.7.7,0,0,1-.7.7H.7a.7.7,0,0,1-.7-.7V.7A.7.7,0,0,1,.7,0Z" transform="translate(545.181 -126) rotate(90)" fill="#474747"/>
    <path id="Path_182" data-name="Path 182" d="M1387.629,794.765a.953.953,0,0,1-.957-.948V791.8a.95.95,0,0,1,.56-.859.823.823,0,0,1,.4-.087h4a1.2,1.2,0,0,0,.71-2.18l-3.016-2.234a3.028,3.028,0,0,1-.352-.259l-.313-.26a2.576,2.576,0,0,1-.185-.2l-.182-.2-.088-.11c-.07-.09-.125-.162-.179-.24l-.048-.071,0-.014-.039-.049-.053-.081a.962.962,0,0,0-.063-.094l-.089-.148c-.064-.128-.117-.233-.165-.343a1.834,1.834,0,0,1-.082-.185l-.126-.317a5.114,5.114,0,0,1-.148-.511l-.1-.6c0-.106,0-.153-.009-.2-.016-.167-.022-.259-.022-.357a5.179,5.179,0,0,1,2.757-4.553,4.791,4.791,0,0,1,2.075-.564,1.469,1.469,0,0,1,.294-.019h4a.954.954,0,0,1,.957.949v2.021a.95.95,0,0,1-.56.859.835.835,0,0,1-.4.088h-4a1.2,1.2,0,0,0-.7,2.19l3.013,2.225a2.8,2.8,0,0,1,.354.259c.127.1.221.184.313.267s.137.144.188.2l.073.085a.8.8,0,0,0,.087.094c.034.037.244.316.3.4l.093.127.065.1a3.5,3.5,0,0,1,.274.525l.075.151.063.145a1.624,1.624,0,0,1,.067.193,4.885,4.885,0,0,1,.15.536,2.432,2.432,0,0,1,.08.452l.026.154a1.406,1.406,0,0,1,.011.209c.01.115.019.226.019.328v.1a5.122,5.122,0,0,1-2.759,4.453,4.792,4.792,0,0,1-2.071.563,1.354,1.354,0,0,1-.268.018Z" transform="translate(-957.672 -896.894)" fill="#474747"/>
    <path id="Path_183" data-name="Path 183" d="M1451.1,785.915c0-4.938-2.942-8.8-7.969-8.8a8.805,8.805,0,1,0,4.2,16.67.982.982,0,0,0,.374-1.411l-.738-1.131a.975.975,0,0,0-1.243-.338,5.439,5.439,0,0,1-2.352.531,5.5,5.5,0,0,1-5.212-3.727h11.606a1.3,1.3,0,0,0,1.309-1.18Q1451.1,786.223,1451.1,785.915Zm-13.024-1.533a5.521,5.521,0,0,1,5.3-3.986,3.975,3.975,0,0,1,3.9,3.986Z" transform="translate(-959.679 -896.896)" fill="#474747"/>
    <path id="Path_184" data-name="Path 184" d="M1500.39,785.915c0-4.938-2.942-8.8-7.969-8.8a8.805,8.805,0,1,0,4.2,16.67.982.982,0,0,0,.374-1.411l-.739-1.131a.973.973,0,0,0-1.242-.338,5.443,5.443,0,0,1-2.352.531,5.5,5.5,0,0,1-5.212-3.727h11.606a1.3,1.3,0,0,0,1.309-1.18Q1500.391,786.223,1500.39,785.915Zm-13.023-1.533a5.521,5.521,0,0,1,5.3-3.986,3.975,3.975,0,0,1,3.9,3.986Z" transform="translate(-961.744 -896.896)" fill="#474747"/>
    <path id="Path_185" data-name="Path 185" d="M1431.088,785.538c0-.132-.014-.261-.02-.392V771.293a.669.669,0,0,0-.668-.669h-2.6a.669.669,0,0,0-.668.67v6.9a8.806,8.806,0,1,0,0,14.7v.895a.669.669,0,0,0,.669.669h2.6a.669.669,0,0,0,.669-.669v-7.851C1431.074,785.8,1431.088,785.67,1431.088,785.538Zm-8.805,4.848a4.853,4.853,0,1,1,4.848-4.848A4.856,4.856,0,0,1,1422.283,790.386Z" transform="translate(-958.795 -896.624)" fill="#474747"/>
  </g>
</svg>
